<svg xmlns="http://www.w3.org/2000/svg" viewBox="0 0 216 195"><path fill="#007CFA" stroke="#007CFA" d="M74.5 0q9.8-3.3 6.5 6.5-1.9 8.6-7.5 13.5l-16 10-9.5 8.5q-18.1 18.9-19 55l1 1 1 13 4 13q7.6 18.4 21.5 30.5 17.5 13 39 22l9 3h8l35-17q13.4-7.6 22.5-19.5 8.3-10.7 13-25l3-13v-24q-5.4-28.6-23.5-44.5-12.9-6.1-22.5-15.5l-5-10V0l9.5 1L157 8.5q3 4 3 11l3.5 5.5 8.5 7.5 1.5 2.5q2.6.8 1.5-2.5 2.4-12.1 10.5-18.5l3-1 4.5 9.5 1 11-8 16v5l3 5 2 10 1.5 1.5 14-9 7.5-1 1 3.5-4 15-7.5 7.5-9.5 6.5q-.8 17.9-6 30.5l9.5-4h3l13 4 2.5 2.5v2l-5.5 5.5-7 5h-12l-1-1H179q-5.8 12.3-17 20.5 3 3.5 9.5 3.5l8.5 7.5 2 5-2.5 2.5-4 1-12 1-17-10h-4l-9 6-5 1-10.5 5 1.5 3 10.5 6.5q2.3 7.2-5.5 4.5l-14-8h-4l-12 7-8.5 1q-1.2-5.5 2.5-7l9.5-5.5q.8-2.2-1.5-1.5l-6-4-21-8-14 9-10 1q-1.5-2.5-7-1l-4.5-2.5-1-2 6.5-7.5q4.6-6.2 14.5-6v-1.5L34.5 137l-20 2q-9.2-2.8-14.5-9.5-1-4.5 1.5-5.5l17-4 9 5 .5-2.5-5-14v-12L16.5 89Q8.3 85.7 4 78.5l-3-16q1.7-4.2 3.5-1.5l5 1q7.1 2.4 11 8l4.5 1 2-11.5 4-7-8-15-1-9L26 14l3.5-1q9 8 12 22L55 21.5q.9-11.1 7.5-16.5l12-5Z" opacity=".9"></path><path fill="#007CFA" stroke="#007CFA" d="M99.5 32q3.8-.7 4.5 1.5v23l-1.5 1.5h-18l-.5-3.5Q87.8 41.8 96.5 34l3-2Zm14 0q6.2-.7 7.5 3.5l11 18V58h-18.5l-1.5-1.5v-23l1.5-1.5Zm-34 5q4.8-1.7 3.5 2.5L74.5 58h-14l-.5-3.5 8.5-9.5 11-8Zm55 0q12.2 4.8 19.5 14.5 2.8 2 2 6.5h-14.5l-1.5-1.5-2-8-5-10 1.5-1.5Zm18 28q8.7-1.2 11.5 3.5l2 6 1 11.5-2.5 1h-16l-3.5-2.5-1-18.5h7.5l1-1Zm-98 1h16l1.5 1.5-1 16-2.5 3.5h-18L49 85.5q-.5-13 5.5-19.5Zm27 0h21l1.5 1.5v16l-2.5 3.5h-21L78 84.5l1-2v-11l2.5-5.5Zm33 0h18l3.5 2.5q2.3 6.7 1 17l-1.5 1.5h-21l-2.5-3.5V67l2.5-1Zm-63 28h17l1.5 1.5q-.8 5.3 2 7V114l-2.5 1h-14l-3.5-2.5-3-9V95l2.5-1Zm29 0h19l4.5 2.5v16l-1.5 1.5q-7.5 2.5-19 1-6.7-5.2-4.5-19.5l1.5-1.5Zm34 0h21l1.5 1.5v14l-2.5 4.5-2 1h-15l-5.5-2.5v-15l2.5-3.5Zm33 0h18l1.5 1.5q.1 11.6-4.5 18.5-5.5 2.5-15 1l-3.5-1q-1.7-13 3.5-20ZM60 122h13.5l2.5 2.5 7 19.5-6.5-2L64 131.5l-4-5V122Zm24.5 0q1.5 2.5 7 1l1-1H103l1 3.5v22l-2.5 1.5-10.5-8.5-6-11-.5-7.5Zm28.5 0h17.5l1.5 1.5q-2.7 14.8-12.5 22.5l-6 3-1.5-1.5v-22l1-3.5Zm29.5 0h13l.5 3.5-5.5 7.5-11 9-4 1-1.5-3.5 8.5-17.5Z" opacity=".9"></path></svg>
